<?xml version="1.0" standalone="no"?><svg xmlns="http://www.w3.org/2000/svg" viewBox="0 0 1440 320"><path fill="#00cba9" fill-opacity="1" d="M0,96L15,80C30,64,60,32,90,58.7C120,85,150,171,180,181.3C210,192,240,128,270,122.7C300,117,330,171,360,208C390,245,420,267,450,245.3C480,224,510,160,540,122.7C570,85,600,75,630,90.7C660,107,690,149,720,176C750,203,780,213,810,229.3C840,245,870,267,900,266.7C930,267,960,245,990,213.3C1020,181,1050,139,1080,149.3C1110,160,1140,224,1170,224C1200,224,1230,160,1260,154.7C1290,149,1320,203,1350,208C1380,213,1410,171,1425,149.3L1440,128L1440,320L1425,320C1410,320,1380,320,1350,320C1320,320,1290,320,1260,320C1230,320,1200,320,1170,320C1140,320,1110,320,1080,320C1050,320,1020,320,990,320C960,320,930,320,900,320C870,320,840,320,810,320C780,320,750,320,720,320C690,320,660,320,630,320C600,320,570,320,540,320C510,320,480,320,450,320C420,320,390,320,360,320C330,320,300,320,270,320C240,320,210,320,180,320C150,320,120,320,90,320C60,320,30,320,15,320L0,320Z"></path></svg>